grf
version=1
nRows=14
nColumns=37
inDegrees=no
endheader
time	ground_force_1_vx	ground_force_1_vy	ground_force_1_vz	ground_force_1_px	ground_force_1_py	ground_force_1_pz	ground_moment_1_mx	ground_moment_1_my	ground_moment_1_mz	ground_force_2_vx	ground_force_2_vy	ground_force_2_vz	ground_force_2_px	ground_force_2_py	ground_force_2_pz	ground_moment_2_mx	ground_moment_2_my	ground_moment_2_mz	ground_force_3_vx	ground_force_3_vy	ground_force_3_vz	ground_force_3_px	ground_force_3_py	ground_force_3_pz	ground_moment_3_mx	ground_moment_3_my	ground_moment_3_mz	ground_force_4_vx	ground_force_4_vy	ground_force_4_vz	ground_force_4_px	ground_force_4_py	ground_force_4_pz	ground_moment_4_mx	ground_moment_4_my	ground_moment_4_mz
      1.47000000	      0.00000000	     -0.00000000	      0.00000000	      0.00000000	      0.00000000	      0.00000000	      0.00000000	      0.00000000	      0.00000000	     -5.62960339	     44.72479630	   -412.44018555	   -295.11866215	  -1079.40878087	      0.00000000	      0.00000000	      0.00000000	  14561.91395291	     -3.06518929	    -50.97089741	   -499.79220581	   -307.39341809	   -642.96477140	      0.00000000	      0.00000000	     -0.00000000	 -19457.60607375	    -35.27740337	     16.15423320	     74.83700562	    610.51087130	   -563.12041081	      0.00000000	      0.00000000	     -0.00000000	   -158.85239187
      1.48000000	      0.00000000	     -0.00000000	      0.00000000	      0.00000000	      0.00000000	      0.00000000	      0.00000000	      0.00000000	      0.00000000	     -6.62315655	     44.81418991	   -412.67254639	   -294.75044278	  -1080.40025472	      0.00000000	      0.00000000	      0.00000000	  14763.02282428	     -3.20278848	    -50.55958911	   -496.37332153	   -306.35448893	   -642.32193219	      0.00000000	      0.00000000	     -0.00000000	 -19500.19669246	    -35.14800121	     16.17262385	     75.38271332	    608.57039668	   -564.28483076	      0.00000000	      0.00000000	      0.00000000	      4.20411946
      1.49000000	      0.00000000	     -0.00000000	      0.00000000	      0.00000000	      0.00000000	      0.00000000	      0.00000000	      0.00000000	      0.00000000	     -6.91303921	     45.68386841	   -412.65789795	   -293.36424697	  -1080.95427798	      0.00000000	     -0.00000000	      0.00000000	  14625.55357682	     -3.60638412	    -50.04231231	   -493.62905884	   -305.62382112	   -641.91841703	      0.00000000	      0.00000000	     -0.00000000	 -19357.79357445	    -35.53713846	     16.36131597	     75.96340179	    603.01603419	   -563.43198843	      0.00000000	      0.00000000	     -0.00000000	    -26.63683192
      1.50000000	      0.00000000	     -0.00000000	      0.00000000	      0.00000000	      0.00000000	      0.00000000	      0.00000000	      0.00000000	      0.00000000	     -6.89141607	     45.72389984	   -414.89852905	   -292.03708491	  -1082.65726071	      0.00000000	      0.00000000	      0.00000000	  14854.36370455	     -4.42249921	    -49.42451820	   -488.54968262	   -304.94388183	   -641.25575272	      0.00000000	      0.00000000	     -0.00000000	 -19148.15923423	    -34.96933605	     16.13609047	     75.61268616	    605.26590157	   -560.47258552	      0.00000000	      0.00000000	      0.00000000	   -107.23901747
      1.51000000	      0.00000000	     -0.00000000	      0.00000000	      0.00000000	      0.00000000	      0.00000000	      0.00000000	      0.00000000	      0.00000000	     -6.88682365	     46.22348404	   -415.62307739	   -291.62339523	  -1081.47232464	      0.00000000	      0.00000000	      0.00000000	  14922.83136973	     -4.83913942	    -48.61671024	   -483.34851074	   -303.92212912	   -641.13123922	      0.00000000	      0.00000000	     -0.00000000	 -19052.77030077	    -35.24663401	     16.30214999	     76.47315979	    600.76223023	   -562.82642704	      0.00000000	      0.00000000	      0.00000000	     59.24854804
      1.52000000	      0.00000000	     -0.00000000	      0.00000000	      0.00000000	      0.00000000	      0.00000000	      0.00000000	      0.00000000	      0.00000000	     -7.83313894	     46.45431137	   -417.52749634	   -290.54365411	  -1082.31958513	      0.00000000	      0.00000000	      0.00000000	  15080.37438021	     -5.73487124	    -47.42537258	   -479.54266357	   -303.41625254	   -640.95571859	      0.00000000	      0.00000000	     -0.00000000	 -18713.05512151	    -35.13120511	     16.04652330	     75.06980133	    607.46367422	   -562.48623572	      0.00000000	     -0.00000000	     -0.00000000	    -56.96362226
      1.53000000	      0.00000000	     -0.00000000	      0.00000000	      0.00000000	      0.00000000	      0.00000000	      0.00000000	      0.00000000	      0.00000000	     -8.60452080	     46.60662079	   -416.97991943	   -289.82091598	  -1082.33686398	      0.00000000	      0.00000000	      0.00000000	  15274.32287483	     -6.06382872	    -46.56261010	   -475.57827759	   -302.86196444	   -640.47069791	      0.00000000	      0.00000000	     -0.00000000	 -18612.87845462	    -35.09962322	     16.22662279	     75.26246643	    606.24329938	   -563.39082648	      0.00000000	      0.00000000	     -0.00000000	   -116.39087435
      1.54000000	      0.00000000	     -0.00000000	      0.00000000	      0.00000000	      0.00000000	      0.00000000	      0.00000000	      0.00000000	      0.00000000	     -9.74925137	     46.83381271	   -416.33236694	   -288.17961823	  -1083.29122457	      0.00000000	      0.00000000	      0.00000000	  15131.43263778	     -6.17804068	    -45.67069953	   -469.73376465	   -302.46649308	   -639.93945757	      0.00000000	      0.00000000	     -0.00000000	 -18355.47011205	    -35.26343013	     16.18609164	     75.22981262	    608.27975242	   -562.68641614	      0.00000000	      0.00000000	     -0.00000000	   -111.62666736
      1.55000000	      0.00000000	     -0.00000000	      0.00000000	      0.00000000	      0.00000000	      0.00000000	      0.00000000	      0.00000000	      0.00000000	    -10.58393860	     47.76557922	   -414.76037598	   -287.81676873	  -1083.81439979	      0.00000000	      0.00000000	      0.00000000	  14891.68686762	     -6.32202781	    -45.10892813	   -465.22817993	   -301.53096337	   -640.34009951	      0.00000000	      0.00000000	     -0.00000000	 -17931.55479211	    -35.12488416	     16.01459810	     75.80566406	    604.19110135	   -561.70727253	      0.00000000	      0.00000000	      0.00000000	      6.40683876
      1.56000000	      0.00000000	     -0.00000000	      0.00000000	      0.00000000	      0.00000000	      0.00000000	      0.00000000	      0.00000000	      0.00000000	     -9.72394562	     48.21134949	   -412.70700073	   -287.39258021	  -1083.35800128	      0.00000000	      0.00000000	      0.00000000	  15094.00045948	     -6.08826442	    -43.16482491	   -460.08508301	   -301.00685538	   -641.31330627	      0.00000000	      0.00000000	     -0.00000000	 -18032.77677090	    -35.26296859	     15.79378150	     75.96436310	    602.96464619	   -561.32125543	      0.00000000	      0.00000000	      0.00000000	     76.88525125
      1.57000000	      0.00000000	     -0.00000000	      0.00000000	      0.00000000	      0.00000000	      0.00000000	      0.00000000	      0.00000000	      0.00000000	     -8.93720436	     48.15481186	   -412.61083984	   -287.45960070	  -1084.18038832	      0.00000000	      0.00000000	      0.00000000	  15041.76561205	     -6.37911208	    -41.81630270	   -456.69030762	   -300.27522454	   -641.01574436	      0.00000000	      0.00000000	     -0.00000000	 -17701.45310758	    -35.22252134	     15.98174022	     75.93180847	    604.54319687	   -565.74150710	      0.00000000	      0.00000000	      0.00000000	    165.99591336
      1.58000000	      0.00000000	     -0.00000000	      0.00000000	      0.00000000	      0.00000000	      0.00000000	      0.00000000	      0.00000000	      0.00000000	     -7.75334883	     48.00865936	   -412.16101074	   -287.70728668	  -1084.07477173	      0.00000000	     -0.00000000	      0.00000000	  15072.67539218	     -6.48384881	    -40.88501683	   -452.12002563	   -299.46266947	   -640.83379718	      0.00000000	     -0.00000000	     -0.00000000	 -17454.87538459	    -35.51501321	     16.44736600	     75.93449402	    604.88025083	   -562.39533186	      0.00000000	      0.00000000	     -0.00000000	    -61.02281969
      1.59000000	      0.00000000	     -0.00000000	      0.00000000	      0.00000000	      0.00000000	      0.00000000	      0.00000000	      0.00000000	      0.00000000	     -6.69860172	     47.24074554	   -413.05941772	   -287.27300800	  -1084.25742854	      0.00000000	      0.00000000	      0.00000000	  15423.25422302	     -6.91163842	    -40.00972687	   -447.61236572	   -299.13388332	   -641.14093680	      0.00000000	      0.00000000	     -0.00000000	 -17172.29869384	    -35.36916207	     16.47226452	     76.31684113	    604.69030267	   -562.88652016	      0.00000000	      0.00000000	     -0.00000000	   -103.95785536
      1.60000000	      0.00000000	     -0.00000000	      0.00000000	      0.00000000	      0.00000000	      0.00000000	      0.00000000	      0.00000000	      0.00000000	     -5.94406796	     46.60749435	   -413.89636230	   -288.01612557	  -1084.70860655	      0.00000000	     -0.00000000	      0.00000000	  15512.25007996	     -7.03324462	    -38.32394348	   -443.96145630	   -299.28894895	   -641.91245815	      0.00000000	      0.00000000	     -0.00000000	 -16956.55276814	    -35.45877315	     16.25109792	     75.77555847	    605.46023647	   -563.44482228	      0.00000000	      0.00000000	     -0.00000000	    -66.30583377
